<svg xmlns="http://www.w3.org/2000/svg" id="_1203985" width="23.512" height="24.57" data-name="1203985" viewBox="0 0 23.512 24.57">
    <defs>
        <style>
            .cls-1{fill:#eb413c}
        </style>
    </defs>
    <path id="Path_253" d="M22.87 336.466l-1.347-.674-6.5 3.249a6.319 6.319 0 0 1-2.769.6 6.315 6.315 0 0 1-2.769-.6l-6.5-3.249-1.347.674a1.617 1.617 0 0 0 0 3.091l8.489 4.245a4.873 4.873 0 0 0 2.125.447 4.876 4.876 0 0 0 2.125-.447l8.489-4.244a1.617 1.617 0 0 0 0-3.091zm0 0" class="cls-1" data-name="Path 253" transform="translate(-.5 -319.679)"/>
    <path id="Path_254" d="M22.87 210.444l-1.347-.674-6.5 3.249a6.314 6.314 0 0 1-2.769.6 6.314 6.314 0 0 1-2.769-.6l-6.5-3.249-1.347.674a1.617 1.617 0 0 0 0 3.091l8.489 4.245a4.873 4.873 0 0 0 2.125.447 4.875 4.875 0 0 0 2.125-.447l8.489-4.245a1.617 1.617 0 0 0 0-3.091zm0 0" class="cls-1" data-name="Path 254" transform="translate(-.5 -199.703)"/>
    <path id="Path_255" d="M1.642 7.784l8.489 4.245a4.856 4.856 0 0 0 2.125.448 4.856 4.856 0 0 0 2.125-.448l8.489-4.245a1.8 1.8 0 0 0 1.142-1.545 1.8 1.8 0 0 0-1.142-1.546L14.381.449A4.857 4.857 0 0 0 12.256 0a4.856 4.856 0 0 0-2.125.448L1.642 4.693A1.8 1.8 0 0 0 .5 6.239a1.8 1.8 0 0 0 1.142 1.545zm0 0" class="cls-1" data-name="Path 255" transform="translate(-.5 -.001)"/>
</svg>
