<svg xmlns="http://www.w3.org/2000/svg" id="_854878" width="51.614" height="29.529" data-name="854878" viewBox="0 0 51.614 29.529">
    <defs>
        <style>
            .cls-1{fill:#44c868}.cls-2{fill:#4ce166}.cls-3{fill:#ffdb56}.cls-4{fill:#a8eefc}.cls-5{fill:#ffbb24}.cls-6{fill:#1ea4e9}
        </style>
    </defs>
    <g id="Group_1227" data-name="Group 1227" transform="translate(13.22)">
        <path id="Path_397" d="M377.5 220.246l-4.055-22.34a.757.757 0 0 0-.377-.526l-10.201-5.68a.754.754 0 0 0-.427-.092l1.857 23.953-.062.028 12.214 5.48a.757.757 0 0 0 1.056-.825z" class="cls-1" data-name="Path 397" transform="translate(-339.123 -191.609)"/>
        <path id="Path_398" d="M143.729 197.128l-10.438-5.437a.755.755 0 0 0-.4-.083.783.783 0 0 1 .109 0l-1.857 23.953 12.276 5.508a.759.759 0 0 0 .31.066z" class="cls-1" data-name="Path 398" transform="translate(-131.142 -191.607)"/>
    </g>
    <g id="Group_1228" data-name="Group 1228">
        <path id="Path_399" d="M15.077 191.612a.756.756 0 0 0-.427.092L4.444 197.38a.756.756 0 0 0-.377.526L.012 220.247a.757.757 0 0 0 1.056.826l12.148-5.45z" class="cls-2" data-name="Path 399" transform="translate(0 -191.61)"/>
        <path id="Path_400" d="M266.73 191.628a.755.755 0 0 0-.292.082L256 197.147v24.008a.756.756 0 0 0 .31-.066l12.276-5.508z" class="cls-2" data-name="Path 400" transform="translate(-230.193 -191.626)"/>
    </g>
    <path id="Path_401" d="M20.807 266.26l-.824 4.538 12.2-6.442.283-3.653.047-.606z" class="cls-3" data-name="Path 401" transform="translate(-17.969 -253.193)"/>
    <path id="Path_402" d="M14.321 288.294l-.11 1.417-12.2 6.442-2 11.032a.758.758 0 0 0 1.056.826l12.148-5.45 1.106-14.266z" class="cls-4" data-name="Path 402" transform="translate(0 -278.547)"/>
    <g id="Group_1229" data-name="Group 1229" transform="translate(14.212 2.597)">
        <path id="Path_403" d="M152.575 261.708l-11.268-1.608-.33 4.259 11.6 17.609v-6.4l-6.919-10.9 6.922.828z" class="cls-5" data-name="Path 403" transform="translate(-140.977 -255.79)"/>
        <path id="Path_404" d="M374.813 220.1l-4.9-2.727-4.641 1.085.058.75.229 2.957z" class="cls-5" data-name="Path 404" transform="translate(-342.659 -217.37)"/>
    </g>
    <path id="Path_405" d="M267.741 237.145l-.44-5.67-.259-3.347-11.012 4.834v3.787l7.193-3.128z" class="cls-3" data-name="Path 405" transform="translate(-230.22 -224.446)"/>
    <path id="Path_406" d="M382.611 286.147l-1.019-5.612-13.473-15.635.412 5.31 13.818 16.656a.756.756 0 0 0 .262-.719z" class="cls-5" data-name="Path 406" transform="translate(-331.01 -257.51)"/>
    <path id="Path_409" d="M256.31 420.6l4.565-2.048-4.875-5.045v7.16a.755.755 0 0 0 .31-.067z" class="cls-3" data-name="Path 409" transform="translate(-230.193 -391.138)"/>
    <g id="Group_1230" data-name="Group 1230" transform="translate(13.22 5.324)">
        <path id="Path_410" d="M378.555 245.393a.757.757 0 0 0-.377-.526l-.8-.447-9.257 2.064 13.474 15.637z" class="cls-6" data-name="Path 410" transform="translate(-344.229 -244.42)"/>
        <path id="Path_411" d="M143.727 320.712v-.757l-11.6-17.609-.992 12.792 12.276 5.508a.757.757 0 0 0 .316.066z" class="cls-6" data-name="Path 411" transform="translate(-131.14 -296.507)"/>
    </g>
</svg>
