<svg xmlns="http://www.w3.org/2000/svg" id="Group_697" width="27.317" height="17.997" data-name="Group 697" viewBox="0 0 27.317 17.997">
    <defs>
        <style>
            .cls-1{fill:#9A9A9A}
        </style>
    </defs>
    <path id="Path_233" d="M342.751 153.1a13.647 13.647 0 0 0-22.537 10.367c0 .2.02 2.091.029 2.292v.768a1.277 1.277 0 0 0 1.277 1.277h24.98a.973.973 0 0 0 .973-.972v-.924l.026-.149c.008-.2.029-2.09.029-2.292a13.737 13.737 0 0 0-4.777-10.367zm-19.219 12.29v-1.321a.372.372 0 0 1 .373-.371h2.053a.373.373 0 0 0 .373-.373v-.159a.373.373 0 0 0-.373-.373h-2.232a1.233 1.233 0 0 0-.2 0 10.393 10.393 0 0 1 2.69-6.53l.071-.076.126.109 1.6 1.6a.373.373 0 0 0 .528 0l.059-.059a.373.373 0 0 0 0-.527l-1.434-1.433a.374.374 0 0 1 .018-.547 10.243 10.243 0 0 1 6.193-2.423h.14s.059 0 .055.035v2.39a.373.373 0 0 0 .373.373.373.373 0 0 0 .373-.373v-2.022a.375.375 0 0 1 .413-.371c.23.021.458.052.685.087a10.235 10.235 0 0 1 5.288 2.343.374.374 0 0 1 .018.547l-1.431 1.432a.373.373 0 0 0 0 .527l.023.023a.373.373 0 0 0 .528 0l1.634-1.635.1-.084.09.119a10.243 10.243 0 0 1 2.665 6.095.373.373 0 0 1-.374.4h-2.026a.373.373 0 0 0-.373.373v.158a.373.373 0 0 0 .374.373h2.064a.371.371 0 0 1 .373.371v1.319a.371.371 0 0 1-.373.369l-20.1.006a.371.371 0 0 1-.364-.372zm13.795-5.466a.372.372 0 0 0-.47-.47c-1.283.42-3.963 1.351-4.6 1.991a2.181 2.181 0 0 0 3.083 3.084c.637-.643 1.567-3.323 1.987-4.606z" class="cls-1" data-name="Path 233" transform="translate(-320.214 -149.808)"/>
</svg>
