<svg xmlns="http://www.w3.org/2000/svg" id="_840014" width="23.274" height="23.903" data-name="840014" viewBox="0 0 23.274 23.903">
    <defs>
        <style>
            .cls-1{fill:#fff}
        </style>
    </defs>
    <g id="Group_2134" data-name="Group 2134">
        <g id="Group_2133" data-name="Group 2133">
            <path id="Path_1042" d="M83.749 4.089h1.887a.157.157 0 0 0 .157-.157V.157A.157.157 0 0 0 85.636 0h-1.887a.157.157 0 0 0-.157.157v3.774a.157.157 0 0 0 .157.158z" class="cls-1" data-name="Path 1042" transform="translate(-78.874)"/>
            <path id="Path_1043" d="M27.051 47.02h-2.327v1.006a1.148 1.148 0 0 1-1.038 1.2H21.83a1.29 1.29 0 0 1-1.2-1.2V47.02h-7.543v1.006a1.29 1.29 0 0 1-1.2 1.2h-1.851A1.148 1.148 0 0 1 9 48.026V47.02H6.671a1.478 1.478 0 0 0-1.447 1.48v3.869H28.5V48.5a1.478 1.478 0 0 0-1.449-1.48z" class="cls-1" data-name="Path 1043" transform="translate(-5.224 -44.189)"/>
            <path id="Path_1044" d="M277.055 4.089h1.887a.157.157 0 0 0 .157-.157V.157a.157.157 0 0 0-.157-.157h-1.887a.157.157 0 0 0-.157.157v3.774a.157.157 0 0 0 .157.158z" class="cls-1" data-name="Path 1044" transform="translate(-260.543)"/>
            <path id="Path_1046" d="M5.224 164.877a1.447 1.447 0 0 0 1.447 1.415h20.38a1.447 1.447 0 0 0 1.447-1.415V151.51H5.224zm5.85-7.58a.44.44 0 0 1 .377-.314l3.239-.5 1.447-2.925a.472.472 0 0 1 .818 0l1.447 2.925 3.239.5a.455.455 0 0 1 .252.786l-2.327 2.265.566 3.239a.472.472 0 0 1-.189.44.5.5 0 0 1-.283.094.314.314 0 0 1-.22-.063l-2.894-1.51-2.894 1.51a.44.44 0 0 1-.5-.031.472.472 0 0 1-.189-.44l.566-3.239-2.329-2.265a.44.44 0 0 1-.126-.469z" class="cls-1" data-name="Path 1046" transform="translate(-5.224 -142.389)"/>
        </g>
    </g>
</svg>
