<svg xmlns="http://www.w3.org/2000/svg" x="0px" y="0px"
     width="24" height="24"
     viewBox="0 0 172 172"
     style=" fill:#000000;">
    <g fill="none" fill-rule="nonzero" stroke="none" stroke-width="1" stroke-linecap="butt" stroke-linejoin="miter"
       stroke-miterlimit="10" stroke-dasharray="" stroke-dashoffset="0" font-family="none" font-weight="none"
       font-size="none" text-anchor="none" style="mix-blend-mode: normal">
        <path d="M0,172v-172h172v172z" fill="none"></path>
        <g fill="#ffffff">
            <path d="M107.486,14.31934l-43,0.04199l-13.14355,14.30534h-22.67578c-7.88333,0 -14.33333,6.45 -14.33333,14.33333v86c0,7.88333 6.45,14.33333 14.33333,14.33333h114.66667c7.88333,0 14.33333,-6.45 14.33333,-14.33333v-86c0,-7.88333 -6.45,-14.33333 -14.33333,-14.33333h-22.61979zM101.20117,28.65267l13.22754,14.34733h28.90462v86h-114.66667v-86h28.97461l13.15755,-14.31934zM86,50.16667c-19.78717,0 -35.83333,16.04617 -35.83333,35.83333c0,19.78717 16.04617,35.83333 35.83333,35.83333c19.78717,0 35.83333,-16.04617 35.83333,-35.83333c0,-19.78717 -16.04617,-35.83333 -35.83333,-35.83333zM86,64.5c11.87517,0 21.5,9.62483 21.5,21.5c0,11.87517 -9.62483,21.5 -21.5,21.5c-11.87517,0 -21.5,-9.62483 -21.5,-21.5c0,-11.87517 9.62483,-21.5 21.5,-21.5z"></path>
        </g>
    </g>
</svg>