<svg xmlns="http://www.w3.org/2000/svg" width="23.443" height="20.38" viewBox="0 0 23.443 20.38">
    <defs>
        <style>
            .cls-1{fill:#9A9A9A}
        </style>
    </defs>
    <g id="Group_699" data-name="Group 699">
        <path id="Path_234" d="M464.891 158.5a2.366 2.366 0 1 0-2.366-2.366 2.368 2.368 0 0 0 2.366 2.366z" class="cls-1" data-name="Path 234" transform="translate(-459.585 -152.322)"/>
        <path id="Path_235" d="M466.034 159.081a1 1 0 0 0-.686.272l-.915.861a7.356 7.356 0 0 1-.723.58l-1.84 1.251h-2.755a1.016 1.016 0 0 0-.9.375l-1.2 1.5c-.194.243-.5.645-.688.9l-.812 1.108a1 1 0 0 0 1.615 1.184l.813-1.108.013-.018-.172 1.919-1.405 6.674a1.056 1.056 0 0 0 .815 1.25 1.055 1.055 0 0 0 1.251-.815l1.315-6.246h.343l.188 2.108a9.507 9.507 0 0 1 .024.953l-.111 2.928a1.055 1.055 0 0 0 1.015 1.095h.04a1.052 1.052 0 0 0 1.054-1.016l.111-2.928a11.473 11.473 0 0 0-.031-1.22l-.281-3.152v-.025l.305-3.412 2.419-1.645a9.313 9.313 0 0 0 .97-.778l.915-.861a1 1 0 0 0-.686-1.73z" class="cls-1" data-name="Path 235" transform="translate(-455.324 -155.468)"/>
        <path id="Path_236" d="M496.069 156.708a2.366 2.366 0 1 0-2.365-2.366 2.369 2.369 0 0 0 2.365 2.366z" class="cls-1" data-name="Path 236" transform="translate(-478.034 -151.264)"/>
        <path id="Path_237" d="M494.872 166.316a1.006 1.006 0 0 0 .808.409 1 1 0 0 0 .807-1.594l-.812-1.108a37.522 37.522 0 0 0-.688-.9l-1.2-1.5a.9.9 0 0 0-.782-.376h-2.973l-1.84-1.247a6.438 6.438 0 0 1-.617-.48l-.289-.273a1 1 0 0 0-1.373 1.458l.29.272a8.21 8.21 0 0 0 .863.678l2.419 1.644.305 3.412v.025l-.281 3.152a3.723 3.723 0 0 0 .232 1.539l.839 2.053a1.055 1.055 0 1 0 1.954-.8l-.839-2.053a1.731 1.731 0 0 1-.083-.553l.188-2.108h.343l.5 2.377a1.529 1.529 0 0 0 .751 1.027 1.51 1.51 0 0 0 .731.188 1.555 1.555 0 0 0 .537-.1l1.105-.4a1.056 1.056 0 0 0-.363-2.047 1.043 1.043 0 0 0-.363.065l-.472.173-.452-2.144-.186-2.076.13.175z" class="cls-1" data-name="Path 237" transform="translate(-473.238 -155.407)"/>
        <path id="Path_238" d="M486.556 152.333a.333.333 0 0 0 .085.011.343.343 0 0 0 .332-.258c.11-.434.386-1.093.619-1.2a.342.342 0 1 0-.29-.621c-.619.289-.936 1.428-.993 1.654a.342.342 0 0 0 .247.414z" class="cls-1" data-name="Path 238" transform="translate(-473.652 -150.231)"/>
        <path id="Path_239" d="M482.353 153.13a.343.343 0 0 0-.289.621c.231.108.508.767.619 1.2a.343.343 0 0 0 .332.258.352.352 0 0 0 .084-.011.342.342 0 0 0 .248-.416c-.058-.223-.374-1.363-.994-1.652z" class="cls-1" data-name="Path 239" transform="translate(-471.029 -151.928)"/>
    </g>
</svg>
