<svg xmlns="http://www.w3.org/2000/svg" id="skycraper" width="20.072" height="20.072" viewBox="0 0 20.072 20.072">
    <defs>
        <style>
            .cls-1{fill:#9f9f9f}
        </style>
    </defs>
    <path id="Path_441" d="M19.485 125.151h-2v-11.843l-8.815-3.624v15.471H7.477v-13.683l-3.8 1.968a1.981 1.981 0 0 0-1.077 1.766v.782h2.524a.588.588 0 0 1 0 1.176H2.6v1.013h2.524a.588.588 0 0 1 0 1.176H2.6v.983h2.524a.588.588 0 0 1 0 1.176H2.6v3.639H.589a.588.588 0 1 0 0 1.176h18.9a.588.588 0 1 0 0-1.176zm-14.949 0v-1.871a.588.588 0 1 1 1.176 0v1.871zm10.314-4.227a.588.588 0 1 1-1.176 0v-1.192a.588.588 0 1 1 1.176 0zm-1.18-7.493a.588.588 0 0 1 1.176 0v1.192a.588.588 0 0 1-1.176 0zm0 3.145a.588.588 0 1 1 1.176 0v1.192a.588.588 0 1 1-1.176 0zm-2.358-3.145a.588.588 0 0 1 1.176 0v1.192a.588.588 0 1 1-1.176 0zm1.18 6.3v1.192a.588.588 0 1 1-1.176 0v-1.192a.588.588 0 1 1 1.176 0zm-1.192-3.156a.588.588 0 1 1 1.176 0v1.192a.588.588 0 1 1-1.176 0zm.009 8.575v-1.87a.588.588 0 1 1 1.176 0v1.87zm2.352 0v-1.87a.588.588 0 1 1 1.176 0v1.87zm0 0" class="cls-1" data-name="Path 441" transform="translate(-.001 -106.254)"/>
    <path id="Path_442" d="M245.662 65.454a.588.588 0 0 0-.447 1.088l.624.257v-1.272zm0 0" class="cls-1" data-name="Path 442" transform="translate(-237.172 -63.369)"/>
    <path id="Path_443" d="M558.07 186.194a.588.588 0 0 0 .447-1.088l-1.056-.434v1.272zm0 0" class="cls-1" data-name="Path 443" transform="translate(-539.977 -178.89)"/>
    <path id="Path_444" d="M254.651 5.345l.609.25a.588.588 0 1 0 .447-1.088L245.659.377a.588.588 0 1 0-.447 1.088l.624.257v.769l8.815 3.623zm0 0" class="cls-1" data-name="Path 444" transform="translate(-237.168 -.333)"/>
</svg>
