<svg xmlns="http://www.w3.org/2000/svg" id="_90000" width="10.097" height="17.283" data-name="90000" viewBox="0 0 10.097 17.283">
    <defs>
        <style>
            .cls-1{fill:#1f1f1f}
        </style>
    </defs>
    <path id="Path_480" d="M139.8 8.516V.647a.648.648 0 0 0-.65-.647h-6.5a.648.648 0 0 0-.65.647v7.869z" class="cls-1" data-name="Path 480" transform="translate(-130.85)"/>
    <path id="Path_481" d="M110.1 258.545v-.9a.648.648 0 0 0-.647-.647h-8.8a.648.648 0 0 0-.647.647v.9a.647.647 0 0 0 .647.647h8.8a.648.648 0 0 0 .647-.647z" class="cls-1" data-name="Path 481" transform="translate(-100 -247.766)"/>
    <path id="Path_482" d="M125 338v4.779a.359.359 0 0 0 .719 0V338z" class="cls-1" data-name="Path 482" transform="translate(-124.102 -325.855)"/>
    <path id="Path_483" d="M336 338v4.779a.359.359 0 0 0 .719 0V338z" class="cls-1" data-name="Path 483" transform="translate(-327.52 -325.855)"/>
</svg>
