<svg xmlns="http://www.w3.org/2000/svg" id="_59252" width="16.242" height="16.242" data-name="59252" viewBox="0 0 16.242 16.242">
    <defs>
        <style>
            .cls-1{fill:#1d1d1d}
        </style>
    </defs>
    <g id="Group_1492" data-name="Group 1492">
        <path id="Path_484" d="M8.121 0a8.121 8.121 0 1 0 8.121 8.121A8.13 8.13 0 0 0 8.121 0zm0 14.514a6.393 6.393 0 1 1 6.393-6.393 6.4 6.4 0 0 1-6.393 6.393z" class="cls-1" data-name="Path 484"/>
        <path id="Path_485" d="M49.053 21.887H45.4V17.5a.669.669 0 0 0-1.337 0v5.057a.669.669 0 0 0 .669.669h4.318a.669.669 0 1 0 0-1.337z" class="cls-1" data-name="Path 485" transform="translate(-36.7 -14.017)"/>
    </g>
</svg>
