<svg xmlns="http://www.w3.org/2000/svg" width="15.118" height="11.824" viewBox="0 0 15.118 11.824">
    <defs>
        <style>
            .cls-1{fill:#1d1d1d}
        </style>
    </defs>
    <g id="_126422" data-name="126422">
        <path id="Path_479" d="M4.078 64.548a1.162 1.162 0 0 0 1.642 0l5.622-5.622a1.646 1.646 0 0 0 .366-.559 5.911 5.911 0 0 0 1.6.239c1.2-.006 1.6-.531 1.726-.844s.224-.962-.618-1.819l-.028-.028a6.722 6.722 0 0 0-2.139-1.36 11.589 11.589 0 0 0-.472-.18v-.009a1.271 1.271 0 0 0-1.254-1.254l-3.368-.047a1.638 1.638 0 0 0-1.189.484L.34 59.171a1.162 1.162 0 0 0 0 1.642zm4.334-9.472a.96.96 0 0 1 1.63.82 6.7 6.7 0 0 0 1.282.7c.168.068.329.13.484.183l-.019-1.354.081.034a5.852 5.852 0 0 1 1.822 1.149l.019.019c.4.413.447.677.413.757-.106.251-1.239.475-2.959-.242a6.64 6.64 0 0 1-1.357-.754c-.012.016-.028.031-.04.047a.959.959 0 1 1-1.357-1.357z" class="cls-1" data-name="Path 479" transform="translate(0 -53.064)"/>
    </g>
</svg>
