<svg xmlns="http://www.w3.org/2000/svg" id="Group_703" width="12.131" height="23.411" data-name="Group 703" viewBox="0 0 12.131 23.411">
    <defs>
        <style>
            .cls-1{fill:#9A9A9A}
        </style>
    </defs>
    <path id="Path_242" d="M273.992 327.68a28.24 28.24 0 0 0-2.862-1.3 6.433 6.433 0 0 1-1.571-.88 1.367 1.367 0 0 1 .338-2.432 2.766 2.766 0 0 1 .962-.2 7.3 7.3 0 0 1 3.617.716c.571.276.759.188.953-.406.2-.629.373-1.267.561-1.9a.664.664 0 0 0-.43-.885 9.181 9.181 0 0 0-2.282-.682c-1.034-.159-1.034-.164-1.039-1.2 0-1.465 0-1.465-1.475-1.465h-.639c-.687.019-.8.14-.822.832-.01.309 0 .619 0 .933 0 .919-.01.9-.89 1.223a4.9 4.9 0 0 0-3.583 4.545 4.658 4.658 0 0 0 2.635 4.453 29.1 29.1 0 0 0 3.293 1.48 4.9 4.9 0 0 1 1.2.706 1.644 1.644 0 0 1-.392 2.882 3.941 3.941 0 0 1-2.113.276 9.424 9.424 0 0 1-3.22-.962c-.595-.31-.769-.227-.972.416-.174.556-.329 1.117-.484 1.678-.208.754-.131.933.59 1.286a10.294 10.294 0 0 0 2.9.832c.783.126.808.159.817.972 0 .367 0 .74.01 1.107a.658.658 0 0 0 .706.745c.542.01 1.088.01 1.629 0a.62.62 0 0 0 .672-.7c0-.5.024-1.011 0-1.514a.8.8 0 0 1 .691-.909 5.465 5.465 0 0 0 2.848-1.828 5.139 5.139 0 0 0-1.648-7.819z" class="cls-1" data-name="Path 242" transform="translate(-264.671 -317.046)"/>
</svg>
