<svg xmlns="http://www.w3.org/2000/svg" id="Group_701" width="17.955" height="24.51" data-name="Group 701" viewBox="0 0 17.955 24.51">
    <defs>
        <style>
            .cls-1{fill:#9A9A9A}
        </style>
    </defs>
    <path id="Path_240" d="M145.595 338.016l-5.52-11.4a1.789 1.789 0 0 1-.174-.769v-8.926a.723.723 0 0 0-.722-.722h-4.7a.72.72 0 0 0-.719.722v8.926a1.734 1.734 0 0 1-.178.769l-5.516 11.4a1.837 1.837 0 0 0 1.634 2.69h14.268a1.841 1.841 0 0 0 1.634-2.69zm-10.72-10.773a3.228 3.228 0 0 0 .321-1.4v-8.207h3.263v8.207a3.227 3.227 0 0 0 .32 1.4l1.3 2.676h-6.499zm9.428 11.83a.4.4 0 0 1-.342.192h-14.267a.4.4 0 0 1-.345-.192.406.406 0 0 1-.011-.391.094.094 0 0 0 .014-.025l3.53-7.3h7.89l3.53 7.3c0 .007.007.018.011.025a.387.387 0 0 1-.013.391z" class="cls-1" data-name="Path 240" transform="translate(-127.85 -316.197)"/>
    <path id="Path_241" d="M146.923 360.716c0-.008-.007-.019-.011-.026l-3.657-7.557h-8.173l-3.657 7.557a.1.1 0 0 1-.015.026.421.421 0 0 0 .011.405.412.412 0 0 0 .358.2h14.78a.41.41 0 0 0 .354-.2.4.4 0 0 0 .01-.405zm-9.029-2.212a.747.747 0 1 1-1.493 0v-.019a.747.747 0 1 1 1.493 0zm1.615-2.481a.747.747 0 1 1-1.493 0V356a.747.747 0 1 1 1.493 0zm2.422 1.364a.747.747 0 0 1-1.493 0v-.022a.747.747 0 0 1 1.493 0z" class="cls-1" data-name="Path 241" transform="translate(-130.191 -338.111)"/>
</svg>
