<svg class="fill-current text-accent" xmlns="http://www.w3.org/2000/svg" width="33.738" height="36.576" viewBox="0 0 33.738 36.576">
    <g id="_747322" data-name="747322" transform="translate(.125 .125)">
        <g id="Group_1103" data-name="Group 1103" transform="translate(29.278 7.246)">
            <g id="Group_1102" data-name="Group 1102">
                <path id="Path_355" d="M435.822 103.449l-.513-1.323-2.646 1.025.513 1.323a12.677 12.677 0 0 1 .859 4.6v6.526h2.838v-6.53a15.5 15.5 0 0 0-1.051-5.621z" class="cls-1" data-name="Path 355" transform="translate(-432.663 -102.126)"/>
            </g>
        </g>
        <g id="Group_1105" data-name="Group 1105" transform="translate(0 7.246)">
            <g id="Group_1104" data-name="Group 1104">
                <path id="Path_356" d="M21.564 102.127l-.513 1.323A15.5 15.5 0 0 0 20 109.071v6.529h2.838v-6.527a12.676 12.676 0 0 1 .859-4.6l.513-1.323z" class="cls-1" data-name="Path 356" transform="translate(-20 -102.127)"/>
            </g>
        </g>
        <g id="Group_1107" data-name="Group 1107" transform="translate(1.703)">
            <g id="Group_1106" data-name="Group 1106">
                <path id="Path_357" d="M74.083 27.812h-1.419a2.19 2.19 0 0 1-1.756-.761 4.334 4.334 0 0 1-.8-2.811v-9.766A11.119 11.119 0 0 0 60.46 3.5V0h-2.838v3.5a11.119 11.119 0 0 0-9.649 10.976v10.215a3.474 3.474 0 0 1-.766 2.38 2.34 2.34 0 0 1-1.788.742H44v3.973h11.452a3.689 3.689 0 1 0 7.178 0h11.453zm-15.042 5.676a.851.851 0 1 1 .851-.851.852.852 0 0 1-.851.851zm-9.705-4.541a6.253 6.253 0 0 0 1.475-4.257V14.474a8.262 8.262 0 0 1 8.11-8.229h.241a8.262 8.262 0 0 1 8.11 8.229v9.766a7.072 7.072 0 0 0 1.472 4.647l.053.061z" class="cls-1" data-name="Path 357" transform="translate(-44)"/>
            </g>
        </g>
    </g>
</svg>
