<svg xmlns="http://www.w3.org/2000/svg" width="149.646" height="99.594" viewBox="0 0 149.646 99.594">
    <defs>
        <style>
            .cls-1{fill:#e6e6e6}.cls-2{fill:#3f3d56}.cls-3{fill:#eb413c}.cls-4{fill:#ffb8b8}.cls-5{fill:#2f2e41}.cls-6{fill:#d0cde1}
        </style>
    </defs>
    <g id="undraw_manage_chats_ylx0">
        <path id="Path_452" d="M669.941 243.331a29.43 29.43 0 0 0-.941-.016V243c.317 0 .637.005.951.016z" class="cls-1" data-name="Path 452" transform="translate(-583.297 -225.844)"/>
        <path id="Path_453" d="M519.091 299.912c-.424 0-.851-.01-1.271-.028l.014-.315c.628.028 1.271.035 1.9.021l.007.315q-.323.007-.65.007zm2.573-.116l-.029-.314c.63-.057 1.265-.137 1.887-.237l.05.311c-.629.1-1.271.182-1.908.24zm-5.761-.063a28.404 28.404 0 0 1-1.9-.281l.057-.31c.62.113 1.253.207 1.881.278zm9.557-.547l-.071-.307a28.415 28.415 0 0 0 1.837-.493l.092.3c-.611.187-1.236.355-1.858.5zm-13.339-.146c-.618-.158-1.24-.34-1.846-.54l.1-.3c.6.2 1.214.378 1.826.534zm17.016-.979l-.113-.294a27.434 27.434 0 0 0 1.749-.741l.133.286a28.06 28.06 0 0 1-1.769.749zm-20.669-.229a27.934 27.934 0 0 1-1.756-.791l.139-.283c.566.279 1.151.542 1.736.782zm24.152-1.39l-.152-.276c.553-.3 1.1-.633 1.632-.974l.171.265c-.536.345-1.092.677-1.651.985zm-27.606-.31c-.553-.321-1.1-.665-1.63-1.023l.177-.261c.523.354 1.065.694 1.612 1.012zm30.836-1.771l-.188-.253a27.775 27.775 0 0 0 1.485-1.188l.205.239c-.485.416-.99.82-1.5 1.2zm-34.023-.384c-.5-.393-1-.809-1.475-1.236l.211-.235c.47.422.961.833 1.459 1.222zm36.942-2.118l-.221-.225c.45-.443.891-.907 1.31-1.379l.236.209c-.424.478-.87.947-1.325 1.395zm-39.8-.45a28.083 28.083 0 0 1-1.293-1.424l.241-.2c.408.481.838.955 1.279 1.408zm42.357-2.427l-.249-.193c.386-.5.759-1.019 1.111-1.545l.262.175a27.468 27.468 0 0 1-1.124 1.563zm-44.843-.505a27.96 27.96 0 0 1-1.087-1.586l.266-.169c.339.532.7 1.06 1.075 1.569zm46.98-2.694l-.273-.157a27.86 27.86 0 0 0 .889-1.683l.284.138a27.277 27.277 0 0 1-.9 1.7zm-49.043-.549a31.66 31.66 0 0 1-.86-1.719l.287-.131c.263.573.548 1.145.85 1.7zm50.723-2.914l-.293-.118c.236-.587.455-1.189.65-1.791l.3.1a29.62 29.62 0 0 1-.657 1.811zm-52.322-.578c-.225-.6-.433-1.211-.616-1.822l.3-.091c.181.6.386 1.211.609 1.8zm53.509-3.082l-.306-.076c.153-.613.286-1.239.4-1.86l.31.055a28.202 28.202 0 0 1-.4 1.881zm-54.613-.6a27.595 27.595 0 0 1-.359-1.89l.312-.048c.1.624.216 1.253.355 1.868zM547 274.873l-.313-.034c.067-.627.114-1.265.138-1.9l.315.012a31.306 31.306 0 0 1-.14 1.922zm-55.873-.615a29.98 29.98 0 0 1-.1-1.921l.315-.005c.011.632.044 1.271.1 1.9zm55.707-3.218a28.697 28.697 0 0 0-.118-1.9l.314-.03c.061.635.1 1.281.12 1.92zm-.365-3.784c-.1-.624-.231-1.251-.377-1.864l.307-.073c.148.62.276 1.255.381 1.886zm-.881-3.7c-.188-.6-.4-1.205-.629-1.793l.294-.115c.232.594.445 1.2.636 1.813zm-1.38-3.538c-.27-.571-.562-1.14-.869-1.69l.275-.154c.311.557.607 1.132.879 1.71zm-1.853-3.317a27.301 27.301 0 0 0-1.093-1.556l.252-.19c.384.509.756 1.038 1.105 1.574zm-2.289-3.035a28.416 28.416 0 0 0-1.294-1.394l.224-.222c.451.453.891.927 1.309 1.409zm-2.681-2.7a28.229 28.229 0 0 0-1.473-1.205l.191-.251c.507.387 1.008.8 1.489 1.219zm-3.024-2.307a27.83 27.83 0 0 0-1.623-.993l.155-.275c.555.314 1.108.652 1.642 1zm-3.312-1.873a27.563 27.563 0 0 0-1.745-.762l.116-.293c.594.235 1.188.494 1.765.77zm-3.538-1.4c-.6-.191-1.218-.364-1.831-.513l.075-.306c.621.151 1.244.326 1.852.519zm-3.694-.9a27.71 27.71 0 0 0-1.885-.257l.032-.314a28.33 28.33 0 0 1 1.906.26z" class="cls-1" data-name="Path 453" transform="translate(-433.387 -226.619)"/>
        <path id="Path_454" d="M491.557 406.585l-.315-.016c.016-.318.038-.637.065-.949l.314.027c-.026.308-.048.624-.064.938z" class="cls-1" data-name="Path 454" transform="translate(-433.569 -362.821)"/>
        <path id="Path_455" d="M270.632 440.069H191v-35.48l39.816 17.9 39.816-17.9z" class="cls-2" data-name="Path 455" transform="translate(-160.882 -340.79)"/>
        <path id="Path_456" d="M191 404.589h79.632l-39.737 20.5z" class="cls-3" data-name="Path 456" transform="translate(-160.882 -340.79)"/>
        <circle id="Ellipse_13" cx="3.311" cy="3.311" r="3.311" class="cls-1" data-name="Ellipse 13" transform="translate(66.702 80.987)"/>
        <path id="Path_457" d="M184.8 548.507a11.227 11.227 0 0 1-1.185-4.442c-.271-2.714-.1-7.289 2.276-13.671a27.57 27.57 0 0 0-1.092-21.942l.273-.158a24.214 24.214 0 0 1 2.285 6.472 28.236 28.236 0 0 1-1.169 15.738c-4.487 12.069-1.151 17.783-1.117 17.839z" class="cls-2" data-name="Path 457" transform="translate(-174.373 -449.304)"/>
        <circle id="Ellipse_14" cx="2.05" cy="2.05" r="2.05" class="cls-3" data-name="Ellipse 14" transform="translate(6.623 54.338)"/>
        <circle id="Ellipse_15" cx="2.05" cy="2.05" r="2.05" class="cls-3" data-name="Ellipse 15" transform="translate(13.088 61.907)"/>
        <circle id="Ellipse_16" cx="2.05" cy="2.05" r="2.05" class="cls-3" data-name="Ellipse 16" transform="translate(8.673 66.953)"/>
        <circle id="Ellipse_17" cx="2.05" cy="2.05" r="2.05" class="cls-3" data-name="Ellipse 17" transform="translate(14.034 71.21)"/>
        <circle id="Ellipse_18" cx="2.05" cy="2.05" r="2.05" class="cls-3" data-name="Ellipse 18" transform="translate(7.096 77.833)"/>
        <path id="Path_458" d="M197.748 716.625s-2.05-5.046 4.1-8.831z" class="cls-2" data-name="Path 458" transform="translate(-186.079 -617.346)"/>
        <path id="Path_459" d="M139.957 734.795s-.933-5.366-8.154-5.32z" class="cls-2" data-name="Path 459" transform="translate(-130.81 -635.608)"/>
        <path id="Path_460" d="M307.226 207.437a19.312 19.312 0 0 1 4.106-11.934 19.4 19.4 0 1 0 2.51 37.834 23.667 23.667 0 0 0 11.676 1.853l-6.2-4.409a19.5 19.5 0 0 0 4.455-4.157 19.4 19.4 0 0 1-16.547-19.187z" class="cls-2" data-name="Path 460" transform="translate(-263.31 -185.662)"/>
        <path id="Path_461" d="M497.722 155.684a19.4 19.4 0 0 0-34.686-11.934 19.395 19.395 0 0 1 12.444 31.121 19.521 19.521 0 0 0 8.2-.541 23.667 23.667 0 0 0 11.676 1.853l-6.2-4.409a19.376 19.376 0 0 0 8.566-16.09z" class="cls-3" data-name="Path 461" transform="translate(-409.811 -135.959)"/>
        <path id="Path_462" d="M424.1 189.614a19.4 19.4 0 0 0 12.444 31.121 19.395 19.395 0 0 0-12.444-31.121z" class="cls-1" data-name="Path 462" transform="translate(-373.56 -180.877)"/>
        <path id="Rectangle_568" d="M0 0h149.646v.315H0z" class="cls-2" data-name="Rectangle 568" transform="translate(0 99.279)"/>
        <path id="Path_463" d="M841.31 294.753l-.935 6.226-10.692 7.232s-5.622 2.694-5.268 4.367c.316 1.492 4.653 1.315 6.019-.992l12.783-5.811 4.275-8.464z" class="cls-4" data-name="Path 463" transform="translate(-714.191 -269.437)"/>
        <path id="Path_464" d="M806.5 558.589l.473 6.623 4.573-.315-.788-6.307z" class="cls-4" data-name="Path 464" transform="translate(-679.325 -470.506)"/>
        <path id="Path_465" d="M888.993 709.961s-.631-2.365-1.261-2.208l-.946 1.735s-4.258 3.942-5.519 4.1c0 0-4.1 1.262 0 3.154H886a29.827 29.827 0 0 1 3.784 0c.631.158 4.258.158 4.415-.788a8.441 8.441 0 0 0-.473-2.838s-.582-4.652-1.237-3.745a12.39 12.39 0 0 1-1.129 1.38z" class="cls-5" data-name="Path 465" transform="translate(-760.557 -617.306)"/>
        <path id="Path_466" d="M881.5 559.089l.473 6.623 4.573-.315-.789-6.307z" class="cls-4" data-name="Path 466" transform="translate(-742.498 -470.927)"/>
        <path id="Path_467" d="M963.993 710.461s-.631-2.365-1.262-2.208l-.946 1.735s-4.258 3.942-5.519 4.1c0 0-4.1 1.261 0 3.154H961a25.652 25.652 0 0 1 3.785-.158c.631.158 4.258.158 4.415-.788a7.314 7.314 0 0 0-.473-2.681s-.582-4.652-1.237-3.745a12.367 12.367 0 0 1-1.128 1.38z" class="cls-5" data-name="Path 467" transform="translate(-823.73 -617.727)"/>
        <path id="Path_468" d="M888.788 433.422l-.788 1.1v2.208l5.046 18.765.946 4.1s0 15.769.946 15.769 5.2.473 5.2-.473-.315-22.392-.315-22.392l4.258 8.042s1.892 14.192 2.523 14.35 5.046 0 5.361-.946l-.946-8.988s.158-10.092-2.523-12.3a25.2 25.2 0 0 0-.946-3.784c-.473-1.1-1.262-1.735-.789-2.523s-.631-9.461-.631-9.461.315-2.681-.315-3.469-17.027.002-17.027.002z" class="cls-5" data-name="Path 468" transform="translate(-767.763 -385.944)"/>
        <circle id="Ellipse_19" cx="4.888" cy="4.888" r="4.888" class="cls-4" data-name="Ellipse 19" transform="translate(126.229 1.906)"/>
        <path id="Path_469" d="M938.6 192.425l-.315 3.154 1.261 1.1-8.042 3.785c1.981-3.385 2.568-6.466 1.577-8.673z" class="cls-4" data-name="Path 469" transform="translate(-804.404 -182.713)"/>
        <path id="Path_470" d="M896.857 217.371s-1.261 2.523.315 1.892l4.888-3.469s5.361 2.05 7.254 4.415l-1.577 16.715-1.262 11.827s.789 1.419.631 1.577-.315-.158-.158.315.631 0 .158.473-.946 0-.473.473 0 .631 0 .631-.631-3.785-6.15-.946-7.884 3.627-11.984.158l4.731-17.976.382-6.78a27.931 27.931 0 0 1 1.2-6.673 5.046 5.046 0 0 1 2.045-2.947z" class="cls-6" data-name="Path 470" transform="translate(-768.184 -202.928)"/>
        <path id="Path_471" d="M974.242 308.24l2.365 5.834-5.519 11.669a3.061 3.061 0 0 0-.473 3.154 20.844 20.844 0 0 0 1.419 2.681s1.419-.631 1.419-3.311l8.042-11.511-.631-9.461z" class="cls-4" data-name="Path 471" transform="translate(-837.132 -280)"/>
        <path id="Path_472" d="M985 243.03a6.027 6.027 0 0 0-1.261 5.677c.946 3.469 1.735 6.15 1.735 6.15s3.784-2.838 6.938-1.1c0 0-.473-10.25-3.154-11.2a4.294 4.294 0 0 0-4.258.473z" class="cls-6" data-name="Path 472" transform="translate(-848.208 -225.197)"/>
        <path id="Path_473" d="M934.388 136.807s-1.494-3.236-4.356-2.489-4.481 1.867-4.605 2.987a15.986 15.986 0 0 0 .062 2.8s.311-2.3 2.3-1.8a17.763 17.763 0 0 0 5.1.124l.5 4.481s.849-.9 1.471-.407 1.519-4.703-.472-5.696z" class="cls-5" data-name="Path 473" transform="translate(-799.252 -134.206)"/>
        <path id="Path_474" d="M824.024 370.028l2.91-.674a.635.635 0 0 1 .715.343l2.981 6.182a.513.513 0 0 1-.322.717l-2.958.84a.678.678 0 0 1-.808-.384l-1.9-4.419-.058.032-.362-.837.06-.031-.531-1.233a.391.391 0 0 1 .274-.536z" class="cls-2" data-name="Path 474" transform="translate(-713.617 -332.26)"/>
        <path id="Path_475" d="M828.2 370.415l.34-.079a.439.439 0 0 1 .5.24l2.91 6.143a.272.272 0 0 1-.167.377l-2.937.886a.352.352 0 0 1-.425-.2l-2.753-6.408a.309.309 0 0 1 .214-.422l.322-.075a.146.146 0 0 1 .161.073.128.128 0 0 0 .142.065l1.53-.354a.22.22 0 0 0 .168-.247z" class="cls-3" data-name="Path 475" transform="translate(-715.238 -333.092)"/>
    </g>
</svg>
