<svg xmlns="http://www.w3.org/2000/svg" width="26.865" height="26.318" data-name="17789" viewBox="0 0 26.865 26.318">
    <path d="M23.308 9.929l-.128-.046-.5-1.191.054-.122c1.513-3.432 1.409-3.532 1.158-3.78l-2.017-1.968a.538.538 0 0 0-.352-.139c-.113 0-.457 0-3.436 1.349l-.119.054-1.229-.495-.049-.123C15.29 0 15.146 0 14.797 0h-2.848c-.347 0-.505 0-1.8 3.474L10.1 3.6l-1.223.5-.117-.049a18.823 18.823 0 0 0-3.5-1.281.541.541 0 0 0-.353.137L2.885 4.88c-.256.253-.362.358 1.229 3.716l.058.125-.5 1.19-.122.047C0 11.33 0 11.464 0 11.821v2.791c0 .358 0 .507 3.557 1.782l.127.045.5 1.187-.054.121c-1.512 3.431-1.416 3.524-1.159 3.78l2.014 1.97a.554.554 0 0 0 .355.139c.113 0 .456 0 3.436-1.348l.119-.056 1.23.5.048.123c1.4 3.467 1.546 3.467 1.894 3.467h2.849c.358 0 .506 0 1.806-3.477l.048-.127 1.224-.5.117.048a18.718 18.718 0 0 0 3.5 1.283.541.541 0 0 0 .354-.138l2.02-1.973c.254-.254.36-.358-1.234-3.712l-.059-.126.5-1.185.119-.047c3.555-1.379 3.555-1.513 3.555-1.871v-2.792c-.001-.358-.001-.506-3.558-1.776zm-9.875 7.757a4.526 4.526 0 1 1 4.615-4.526 4.577 4.577 0 0 1-4.616 4.526z" data-name="Path 422"/>
</svg>
