<svg xmlns="http://www.w3.org/2000/svg" id="Group_709" width="20.63" height="20.648" data-name="Group 709" viewBox="0 0 20.63 20.648">
    <defs>
        <style>
            .cls-1{fill:#9A9A9A}
        </style>
    </defs>
    <g id="Group_706" data-name="Group 706" transform="translate(11.347 11.347)">
        <g id="Group_705" data-name="Group 705">
            <path id="Path_243" d="M422.819 356.039l-1.341-1.341a3.72 3.72 0 0 0 .619-2.063 4.126 4.126 0 1 0-4.126 4.126 3.718 3.718 0 0 0 2.063-.619l1.341 1.341a.971.971 0 0 0 1.444 0 1 1 0 0 0 0-1.444zm-4.848-1.341a2.063 2.063 0 1 1 2.063-2.063 2.069 2.069 0 0 1-2.063 2.065z" class="cls-1" data-name="Path 243" transform="translate(-413.845 -348.509)"/>
        </g>
    </g>
    <g id="Group_708" data-name="Group 708">
        <g id="Group_707" data-name="Group 707">
            <path id="Path_244" d="M402.017 321.208h-14.441a.975.975 0 0 0-1.032 1.032v18.568a.975.975 0 0 0 1.032 1.032h11.037a6.182 6.182 0 0 1 3.4-11.347 3.5 3.5 0 0 1 1.031.1v-8.353a.974.974 0 0 0-1.027-1.032zm-7.217 8.252h-5.157a1.033 1.033 0 0 1-1.032-1.031.974.974 0 0 1 1.032-1.032h5.157a.975.975 0 0 1 1.032 1.032 1.033 1.033 0 0 1-1.032 1.031zm5.158-4.126h-10.319a1.034 1.034 0 0 1-1.032-1.032.975.975 0 0 1 1.032-1.032h10.315a.975.975 0 0 1 1.032 1.032 1.034 1.034 0 0 1-1.032 1.032z" class="cls-1" data-name="Path 244" transform="translate(-386.544 -321.208)"/>
        </g>
    </g>
</svg>
