<svg xmlns="http://www.w3.org/2000/svg" id="Group_695" width="14.891" height="20.488" data-name="Group 695" viewBox="0 0 14.891 20.488">
    <defs>
        <style>
            .cls-1{fill:#9A9A9A}
        </style>
    </defs>
    <g id="Group_694" data-name="Group 694">
        <path id="Path_230" d="M213.074 170.3a3.374 3.374 0 0 1-3.27-3.471h6.54a3.374 3.374 0 0 1-3.27 3.471zm3.035-5.3h-6.069c-.164-1.786-4.411-3.344-4.411-7.81 0-4.764 3.563-7.29 7.445-7.385a8.007 8.007 0 0 1 5.178 1.942 7.071 7.071 0 0 1 2.267 5.443c.001 4.469-4.246 6.027-4.41 7.81z" class="cls-1" data-name="Path 230" transform="translate(-205.629 -149.808)"/>
        <path id="Path_231" d="M222.513 191.972a3.276 3.276 0 1 1-6.54 0z" class="cls-1" data-name="Path 231" transform="translate(-211.798 -174.954)"/>
        <path id="Path_232" d="M220.52 157.193c0 4.466-4.247 6.023-4.411 7.81h-6.069c-.164-1.786-4.411-3.344-4.411-7.81 0-4.764 3.563-7.29 7.445-7.385a8.007 8.007 0 0 1 5.178 1.942 7.071 7.071 0 0 1 2.268 5.443z" class="cls-1" data-name="Path 232" transform="translate(-205.629 -149.808)"/>
    </g>
</svg>
