<svg xmlns="http://www.w3.org/2000/svg" id="Group_1334" width="23.949" height="16.692" data-name="Group 1334" viewBox="0 0 23.949 16.692">
    <defs>
        <style>
            .cls-1{fill:#9f9f9f}
        </style>
    </defs>
    <path id="Path_435" d="M176 178.895c-.8.475-1.414.969-1.441 1.94a5.421 5.421 0 0 0-1.057-.685 5.292 5.292 0 0 0-1.228-.134 2.192 2.192 0 0 0-.048-2.332 2.365 2.365 0 0 0 2.3-.673 2.284 2.284 0 0 0 1.474 1.884z" class="cls-1" data-name="Path 435" transform="translate(-162.636 -170.542)"/>
    <g id="Group_1333" data-name="Group 1333">
        <path id="Path_437" d="M68.268 99.327a10.31 10.31 0 0 0-1.677-.158q-1.443-.021-2.886-.019c-1.424 0-2.848.011-4.272.018a10.408 10.408 0 0 0-1.534.12A8.378 8.378 0 0 0 51 106.553a2.795 2.795 0 0 0-.016.16l-.013.151c0 .067-.01.135-.013.2s-.006.131-.007.2v.612a7.565 7.565 0 0 0 .081.789 8.34 8.34 0 0 0 8.33 7.163c1.463 0 2.926.016 4.39.016.965 0 1.928-.006 2.892-.023a10.171 10.171 0 0 0 1.634-.158 8.347 8.347 0 0 0-.02-16.334zm.848 8.849a3.839 3.839 0 0 0 .833 1 6.128 6.128 0 0 0 2.091 1.021c.146.049.292.093.468.15a6.185 6.185 0 0 1-1.411 1.894 6.372 6.372 0 0 1-4.4 1.727c-2.488.01-4.976.016-7.465 0a6.478 6.478 0 0 1-.94-12.879 7.3 7.3 0 0 1 1.106-.075q3.593-.01 7.187 0a6.465 6.465 0 0 1 6.495 5.38 5.8 5.8 0 0 1 0 2.2c-.867-.322-1.792-.463-2.366-1.282a.928.928 0 0 0-1.182-.286.864.864 0 0 0-.417 1.149z" class="cls-1" data-name="Path 437" transform="translate(-50.95 -99.15)"/>
        <path id="Path_438" d="M154.248 150.89c-.421-.3-.851-.577-1.26-.888a1 1 0 0 1-.315-.421c-.2-.528-.363-1.068-.547-1.6a.92.92 0 0 0-1.5-.474c-.406.3-.8.618-1.211.9a1 1 0 0 1-.5.167c-.565.024-1.131.006-1.7.023a.926.926 0 0 0-.9 1.3c.148.449.292.9.467 1.337a.951.951 0 0 1 0 .712c-.171.494-.323 1-.475 1.5a.933.933 0 0 0 .979 1.287c.5-.007 1.007-.034 1.511-.029a.809.809 0 0 1 .421.133c.485.328.952.682 1.434 1.015a.916.916 0 0 0 1.471-.506c.161-.5.3-1 .47-1.5a.8.8 0 0 1 .253-.359c.463-.36.939-.7 1.41-1.049a.916.916 0 0 0 .4-.772.892.892 0 0 0-.408-.776zm-3.478 2.745a5.541 5.541 0 0 0-1.08-.7 5.406 5.406 0 0 0-1.255-.137 2.24 2.24 0 0 0-.049-2.383 2.416 2.416 0 0 0 2.35-.688 2.334 2.334 0 0 0 1.505 1.926c-.82.485-1.441.989-1.471 1.982z" class="cls-1" data-name="Path 438" transform="translate(-138.406 -143.319)"/>
        <path id="Path_439" d="M176.086 178.936c-.822.486-1.445.99-1.472 1.983a5.539 5.539 0 0 0-1.08-.7 5.409 5.409 0 0 0-1.255-.137 2.24 2.24 0 0 0-.049-2.383 2.416 2.416 0 0 0 2.35-.688 2.334 2.334 0 0 0 1.506 1.925z" class="cls-1" data-name="Path 439" transform="translate(-162.249 -170.602)"/>
        <path id="Path_440" d="M68.268 99.327a8.356 8.356 0 0 0-1.715-.177H59.3a8.347 8.347 0 0 0-8.292 7.4 2.795 2.795 0 0 0-.016.16l-.013.151c0 .067-.01.135-.013.2s-.006.131-.007.2v.612a8.341 8.341 0 0 0 8.335 7.968h7.257a8.347 8.347 0 0 0 1.715-16.515zm.848 8.849a3.839 3.839 0 0 0 .833 1 6.128 6.128 0 0 0 2.091 1.021c.146.049.292.093.468.15a6.185 6.185 0 0 1-1.411 1.894 6.372 6.372 0 0 1-4.4 1.727c-2.488.01-4.976.016-7.465 0a6.478 6.478 0 0 1-.94-12.879 7.3 7.3 0 0 1 1.106-.075q3.593-.01 7.187 0a6.465 6.465 0 0 1 6.495 5.38 5.8 5.8 0 0 1 0 2.2c-.867-.322-1.792-.463-2.366-1.282a.928.928 0 0 0-1.182-.286.864.864 0 0 0-.417 1.149zm-2.323-1.454c-.421-.3-.851-.577-1.26-.888a1 1 0 0 1-.315-.421c-.2-.528-.363-1.068-.547-1.6a.92.92 0 0 0-1.5-.474c-.406.3-.8.618-1.211.9a1 1 0 0 1-.5.167c-.565.024-1.131.006-1.7.023a.926.926 0 0 0-.9 1.3c.148.449.292.9.467 1.337a.951.951 0 0 1 0 .712c-.171.494-.323 1-.475 1.5a.933.933 0 0 0 .979 1.287c.5-.007 1.007-.034 1.511-.029a.809.809 0 0 1 .421.133c.485.328.952.682 1.434 1.015a.916.916 0 0 0 1.471-.506c.161-.5.3-1 .47-1.5a.8.8 0 0 1 .253-.359c.462-.36.939-.7 1.41-1.049a.916.916 0 0 0 .4-.772.892.892 0 0 0-.409-.777zm-3.478 2.745a5.54 5.54 0 0 0-1.08-.7 5.409 5.409 0 0 0-1.255-.137 2.24 2.24 0 0 0-.049-2.383 2.416 2.416 0 0 0 2.35-.688 2.334 2.334 0 0 0 1.505 1.926c-.822.484-1.445.988-1.472 1.981z" class="cls-1" data-name="Path 440" transform="translate(-50.95 -99.15)"/>
    </g>
</svg>
