<svg xmlns="http://www.w3.org/2000/svg" id="multiple-users-silhouette" width="22.457" height="18.899" viewBox="0 0 22.457 18.899">
    <defs>
        <style>
            .cls-1{fill:#9f9f9f}
        </style>
    </defs>
    <path id="Path_431" d="M13.552 9.592a4.081 4.081 0 0 1 1.9 3.032 3.292 3.292 0 1 0-1.9-3.032zm-2.158 6.744A3.293 3.293 0 1 0 8.1 13.042a3.294 3.294 0 0 0 3.294 3.293zm1.4.224H10a4.222 4.222 0 0 0-4.217 4.217v3.418l.009.054.235.074a19.2 19.2 0 0 0 5.734.925 11.771 11.771 0 0 0 5.007-.94l.22-.111h.024v-3.42a4.221 4.221 0 0 0-4.221-4.217zm5.449-3.4h-2.776a4.059 4.059 0 0 1-1.253 2.827 5.011 5.011 0 0 1 3.579 4.8v1.053a11.348 11.348 0 0 0 4.42-.928l.22-.112h.024v-3.424a4.222 4.222 0 0 0-4.217-4.216zm-12.628-.225a3.272 3.272 0 0 0 1.752-.508 4.076 4.076 0 0 1 1.533-2.6c0-.062.009-.123.009-.185a3.293 3.293 0 1 0-3.293 3.293zm2.958 3.051a4.061 4.061 0 0 1-1.252-2.812c-.1-.008-.2-.016-.309-.016H4.217A4.222 4.222 0 0 0 0 17.376v3.418l.009.053.235.074a19.772 19.772 0 0 0 4.749.893v-1.032a5.012 5.012 0 0 1 3.58-4.795z" class="cls-1" data-name="Path 431" transform="translate(0 -6.348)"/>
</svg>
