<svg xmlns="http://www.w3.org/2000/svg" width="25.951" height="25.951" viewBox="0 0 25.951 25.951">
    <defs>
        <style>
            .cls-1{fill:#f04238}.cls-2{fill:#fff}
        </style>
    </defs>
    <g id="Group_1158" data-name="Group 1158" transform="translate(-305.74 -126.875)">
        <rect id="Rectangle_514" width="25.951" height="25.951" class="cls-1" data-name="Rectangle 514" rx="12.976" transform="translate(305.74 126.875)"/>
        <g id="Group_1157" data-name="Group 1157" transform="translate(309.628 133.034)">
            <path id="Path_380" d="M335.211 152a9.081 9.081 0 0 0-15 6.9c0 .135.013 1.391.019 1.525v.511a.85.85 0 0 0 .85.85h16.624a.647.647 0 0 0 .647-.647v-.615l.017-.1c.005-.135.02-1.391.02-1.525a9.141 9.141 0 0 0-3.177-6.899zm-12.789 8.177v-.879a.247.247 0 0 1 .248-.247h1.366a.248.248 0 0 0 .248-.248v-.103a.248.248 0 0 0-.248-.248h-1.485a.821.821 0 0 0-.131 0 6.916 6.916 0 0 1 1.79-4.345l.047-.05.084.073 1.065 1.066a.248.248 0 0 0 .351 0l.039-.039a.248.248 0 0 0 0-.351l-.954-.953a.249.249 0 0 1 .012-.364 6.816 6.816 0 0 1 4.121-1.612h.093s.039 0 .036.023v1.59a.248.248 0 0 0 .248.248.248.248 0 0 0 .248-.248v-1.347a.25.25 0 0 1 .275-.247c.153.014.305.034.456.058a6.811 6.811 0 0 1 3.519 1.559.249.249 0 0 1 .012.364l-.952.953a.248.248 0 0 0 0 .35l.016.016a.248.248 0 0 0 .351 0l1.087-1.088.07-.056.06.079a6.816 6.816 0 0 1 1.773 4.056.248.248 0 0 1-.249.266h-1.348a.248.248 0 0 0-.248.248v.105a.248.248 0 0 0 .249.248h1.374a.247.247 0 0 1 .248.247v.878a.247.247 0 0 1-.248.245H322.67a.247.247 0 0 1-.248-.248zm9.179-3.637a.248.248 0 0 0-.313-.313 12.218 12.218 0 0 0-3.063 1.325 1.451 1.451 0 0 0 2.052 2.052 12.219 12.219 0 0 0 1.323-3.065z" class="cls-2" data-name="Path 380" transform="translate(-320.214 -149.808)"/>
        </g>
    </g>
</svg>
