<svg xmlns="http://www.w3.org/2000/svg" width="49.77" height="49.77" viewBox="0 0 49.77 49.77">
    <defs>
        <style>
            .cls-1{fill:#38479b}.cls-2{fill:#fff}
        </style>
    </defs>
    <g id="Group_1152" data-name="Group 1152" transform="translate(-45.783 -126.875)">
        <rect id="Rectangle_512" width="49.77" height="49.77" class="cls-1" data-name="Rectangle 512" rx="24.885" transform="translate(45.783 126.875)"/>
        <g id="Group_1151" data-name="Group 1151" transform="translate(56.472 139.815)">
            <path id="Path_376" d="M84.033 156.348a5.159 5.159 0 0 1 1.973 3.147.817.817 0 0 0 .542.624 4.135 4.135 0 0 0 2.082.128 4.164 4.164 0 1 0-4.921-4.66.819.819 0 0 0 .324.761zm-3.8 8.217a4.166 4.166 0 1 0-3.4-3.4 4.168 4.168 0 0 0 3.403 3.4zm2.471.342h-3.529a5.331 5.331 0 0 0-5.331 5.331v4.321l.011.067.3.093a24.268 24.268 0 0 0 7.249 1.169 14.868 14.868 0 0 0 6.326-1.188l.278-.141h.03v-4.321a5.336 5.336 0 0 0-5.331-5.331zm6.889-4.3h-3.211a.311.311 0 0 0-.307.291 5.121 5.121 0 0 1-1.246 2.945.3.3 0 0 0 .117.486 6.334 6.334 0 0 1 4.087 5.914v.463a.818.818 0 0 0 .881.816 13.61 13.61 0 0 0 4.706-1.121l.278-.141h.03v-4.322a5.331 5.331 0 0 0-5.328-5.33zm-16.493-.316a4.132 4.132 0 0 0 2.254-.343 1.081 1.081 0 0 0 .584-.728 5.149 5.149 0 0 1 1.48-2.514l.362-.888a4.164 4.164 0 1 0-4.68 4.473zm3.832 4.04a.3.3 0 0 0 .117-.486 5.128 5.128 0 0 1-1.261-3.217c-.13-.009-.259-.02-.391-.02h-3.529a5.331 5.331 0 0 0-5.331 5.331v4.321l.011.066.3.094a25.519 25.519 0 0 0 5.11 1.058.816.816 0 0 0 .893-.816v-.419a6.335 6.335 0 0 1 4.085-5.912z" class="cls-2" data-name="Path 376" transform="translate(-66.537 -151.997)"/>
        </g>
    </g>
</svg>
