<svg xmlns="http://www.w3.org/2000/svg" width="30.76" height="30.76" viewBox="0 0 30.76 30.76">
  <g id="Group_1161" data-name="Group 1161" transform="translate(-435.719 -126.875)">
    <g id="Group_1160" data-name="Group 1160" transform="translate(435.719 126.875)">
      <rect id="Rectangle_515" data-name="Rectangle 515" width="30.76" height="30.76" rx="15.38" transform="translate(0 0)" fill="#9727a8"/>
      <g id="Group_1159" data-name="Group 1159" transform="translate(6.241 7.435)">
        <path id="Path_381" data-name="Path 381" d="M464.369,157.454a1.845,1.845,0,1,0-1.844-1.844A1.846,1.846,0,0,0,464.369,157.454Z" transform="translate(-460.233 -152.64)" fill="#fff"/>
        <path id="Path_382" data-name="Path 382" d="M463.675,159.081a.777.777,0,0,0-.535.212l-.713.671a5.738,5.738,0,0,1-.564.452l-1.435.975H458.28a.792.792,0,0,0-.7.293l-.935,1.168c-.151.189-.392.5-.536.7l-.633.864a.78.78,0,0,0,.629,1.242.783.783,0,0,0,.63-.319l.633-.864.01-.014-.134,1.5-1.1,5.2a.823.823,0,0,0,.636.975.822.822,0,0,0,.975-.636l1.025-4.87h.267l.146,1.644a7.406,7.406,0,0,1,.019.743l-.086,2.283a.823.823,0,0,0,.791.853h.032a.82.82,0,0,0,.822-.792l.086-2.283a8.934,8.934,0,0,0-.025-.951l-.219-2.458c0-.007,0-.013,0-.02l.238-2.661,1.886-1.282a7.275,7.275,0,0,0,.756-.606l.713-.671a.781.781,0,0,0-.535-1.349Z" transform="translate(-455.324 -156.264)" fill="#fff"/>
        <path id="Path_383" data-name="Path 383" d="M495.548,155.665a1.845,1.845,0,1,0-1.844-1.845A1.847,1.847,0,0,0,495.548,155.665Z" transform="translate(-481.486 -151.421)" fill="#fff"/>
        <path id="Path_384" data-name="Path 384" d="M492.829,164.7a.785.785,0,0,0,.63.319.781.781,0,0,0,.629-1.242l-.633-.864c-.145-.2-.385-.511-.536-.7l-.935-1.168a.7.7,0,0,0-.61-.293h-2.318l-1.435-.975a5.029,5.029,0,0,1-.481-.374l-.226-.213a.781.781,0,0,0-1.07,1.137l.226.212a6.4,6.4,0,0,0,.673.529l1.886,1.282.238,2.661c0,.007,0,.013,0,.02l-.219,2.458a2.9,2.9,0,0,0,.181,1.2l.654,1.6a.823.823,0,1,0,1.523-.623l-.654-1.6a1.347,1.347,0,0,1-.065-.431l.146-1.644h.267l.39,1.853a1.192,1.192,0,0,0,.585.8,1.177,1.177,0,0,0,.57.146,1.212,1.212,0,0,0,.419-.075l.862-.316a.823.823,0,0,0-.283-1.6.814.814,0,0,0-.283.051l-.368.135-.352-1.672-.145-1.619.1.137Z" transform="translate(-475.961 -156.194)" fill="#fff"/>
        <path id="Path_385" data-name="Path 385" d="M486.5,151.87a.259.259,0,0,0,.066.008.267.267,0,0,0,.258-.2c.086-.338.3-.852.483-.937a.267.267,0,1,0-.226-.484c-.483.225-.73,1.114-.774,1.289A.267.267,0,0,0,486.5,151.87Z" transform="translate(-476.438 -150.231)" fill="#fff"/>
        <path id="Path_386" data-name="Path 386" d="M482.246,153.123a.267.267,0,0,0-.226.484c.181.084.4.6.483.937a.267.267,0,0,0,.259.2.274.274,0,0,0,.066-.008.267.267,0,0,0,.193-.324C482.976,154.237,482.729,153.349,482.246,153.123Z" transform="translate(-473.417 -152.185)" fill="#fff"/>
      </g>
    </g>
  </g>
</svg>
