<svg xmlns="http://www.w3.org/2000/svg" width="34.527" height="34.527" viewBox="0 0 34.527 34.527">
    <defs>
        <style>
            .cls-1{fill:#46a252}.cls-2{fill:#fff}
        </style>
    </defs>
    <g id="Group_1167" data-name="Group 1167" transform="translate(-231.384 -297.734)">
        <g id="Group_1166" data-name="Group 1166" transform="translate(231.384 297.734)">
            <rect id="Rectangle_517" width="34.527" height="34.527" class="cls-1" data-name="Rectangle 517" rx="17.263"/>
            <g id="Group_1165" data-name="Group 1165" transform="translate(11.894 6.9)">
                <path id="Path_389" d="M272.923 326.461a24.993 24.993 0 0 0-2.534-1.147 5.7 5.7 0 0 1-1.391-.779 1.21 1.21 0 0 1 .3-2.153 2.448 2.448 0 0 1 .852-.175 6.463 6.463 0 0 1 3.2.634c.505.244.672.167.843-.359.18-.557.33-1.122.5-1.683a.587.587 0 0 0-.381-.783 8.127 8.127 0 0 0-2.021-.6c-.916-.141-.916-.145-.92-1.066 0-1.3 0-1.3-1.306-1.3h-.565c-.608.017-.71.124-.728.736-.009.274 0 .548 0 .826 0 .813-.009.8-.788 1.083a4.342 4.342 0 0 0-3.172 4.024 4.123 4.123 0 0 0 2.333 3.942 25.748 25.748 0 0 0 2.915 1.31 4.342 4.342 0 0 1 1.062.625 1.456 1.456 0 0 1-.347 2.551 3.489 3.489 0 0 1-1.871.244 8.342 8.342 0 0 1-2.851-.852c-.527-.274-.681-.2-.86.368-.154.492-.291.989-.428 1.486-.184.667-.116.826.522 1.138a9.111 9.111 0 0 0 2.568.736c.694.111.715.141.724.86 0 .325 0 .655.009.98a.582.582 0 0 0 .625.659c.48.009.963.009 1.442 0a.549.549 0 0 0 .595-.621c0-.445.021-.895 0-1.34a.707.707 0 0 1 .612-.8 4.839 4.839 0 0 0 2.522-1.618 4.55 4.55 0 0 0-1.461-6.926z" class="cls-2" data-name="Path 389" transform="translate(-264.671 -317.046)"/>
            </g>
        </g>
    </g>
</svg>
