<svg xmlns="http://www.w3.org/2000/svg" width="21.36" height="21.36" viewBox="0 0 21.36 21.36">
  <g id="Group_1164" data-name="Group 1164" transform="translate(-101.405 -297.734)">
    <g id="Group_1163" data-name="Group 1163" transform="translate(101.405 297.734)">
      <rect id="Rectangle_516" data-name="Rectangle 516" width="21.36" height="21.36" rx="10.68" transform="translate(0 0)" fill="#218dde"/>
      <g id="Group_1162" data-name="Group 1162" transform="translate(5.846 4.081)">
        <path id="Path_387" data-name="Path 387" d="M137.4,327.945l-2.972-6.14a.963.963,0,0,1-.094-.414v-4.806a.389.389,0,0,0-.389-.389h-2.533a.387.387,0,0,0-.387.389v4.806a.934.934,0,0,1-.1.414l-2.97,6.14a.989.989,0,0,0,.88,1.449h7.682a.991.991,0,0,0,.88-1.449Zm-5.772-5.8a1.738,1.738,0,0,0,.173-.753v-4.419h1.757v4.419a1.738,1.738,0,0,0,.172.753l.7,1.441h-3.5Zm5.076,6.37a.213.213,0,0,1-.184.1h-7.682a.214.214,0,0,1-.186-.1.219.219,0,0,1-.006-.211.05.05,0,0,0,.008-.013l1.9-3.928h4.248l1.9,3.928.006.013A.208.208,0,0,1,136.709,328.514Z" transform="translate(-127.85 -316.197)" fill="#fff"/>
        <path id="Path_388" data-name="Path 388" d="M139.451,357.075l-.006-.013-1.9-3.928H133.3l-1.9,3.928a.049.049,0,0,1-.008.013.219.219,0,0,0,.006.211.214.214,0,0,0,.186.1h7.682a.213.213,0,0,0,.184-.1A.208.208,0,0,0,139.451,357.075Zm-4.693-1.15a.388.388,0,1,1-.776,0v-.01a.388.388,0,1,1,.776,0Zm.839-1.29a.388.388,0,1,1-.776,0v-.01a.388.388,0,1,1,.776,0Zm1.259.709a.388.388,0,0,1-.776,0v-.011a.388.388,0,0,1,.776,0Z" transform="translate(-130.586 -344.968)" fill="#fff"/>
      </g>
    </g>
  </g>
</svg>
